<svg xmlns="http://www.w3.org/2000/svg" viewBox="0 0 1754 694.5"><defs><style>.cls-1,.cls-29,.cls-30,.cls-31,.cls-32,.cls-33,.cls-34,.cls-35,.cls-36,.cls-37,.cls-38,.cls-39,.cls-40,.cls-41,.cls-71{font-size:70px;fill:#6892bc;font-family:SourceSansPro-LightIt, Source Sans Pro;}.cls-1,.cls-71{font-style:italic;}.cls-1{letter-spacing:0.01em;}.cls-2{letter-spacing:0.03em;}.cls-3{letter-spacing:0.02em;}.cls-4,.cls-40{letter-spacing:0.02em;}.cls-5{letter-spacing:0.01em;}.cls-6{letter-spacing:0.01em;}.cls-7{letter-spacing:0.02em;}.cls-8{letter-spacing:0.02em;}.cls-26,.cls-29,.cls-75,.cls-9{letter-spacing:0.05em;}.cls-10{letter-spacing:0.02em;}.cls-11{letter-spacing:0.02em;}.cls-12{letter-spacing:0.02em;}.cls-13{letter-spacing:0.01em;}.cls-14{letter-spacing:0.02em;}.cls-15{letter-spacing:0.02em;}.cls-16{letter-spacing:0.02em;}.cls-17,.cls-32{letter-spacing:0.02em;}.cls-18{letter-spacing:0.01em;}.cls-19{letter-spacing:0.02em;}.cls-20{letter-spacing:0.01em;}.cls-21,.cls-38{letter-spacing:0.01em;}.cls-22,.cls-33{letter-spacing:0.02em;}.cls-23{letter-spacing:0.02em;}.cls-24{font-size:85px;letter-spacing:0.03em;}.cls-24,.cls-68,.cls-88{fill:#2ecc71;}.cls-24,.cls-73,.cls-74,.cls-75{font-family:SourceSansPro-SemiboldIt, Source Sans Pro;}.cls-25,.cls-26,.cls-27,.cls-28,.cls-42,.cls-48,.cls-53,.cls-58,.cls-64,.cls-73,.cls-74,.cls-75,.cls-89,.cls-90,.cls-91,.cls-92,.cls-94,.cls-95,.cls-96{font-weight:700;}.cls-27{letter-spacing:0.03em;}.cls-28{letter-spacing:0.03em;}.cls-30{letter-spacing:0.01em;}.cls-31{letter-spacing:0.03em;}.cls-34{letter-spacing:0.02em;}.cls-35,.cls-72{letter-spacing:0.03em;}.cls-36{letter-spacing:0.02em;}.cls-37,.cls-77{letter-spacing:0.01em;}.cls-39{letter-spacing:0em;}.cls-41{letter-spacing:0.01em;}.cls-42,.cls-48,.cls-53,.cls-58,.cls-64,.cls-89,.cls-90,.cls-91,.cls-92,.cls-94,.cls-95,.cls-96{font-size:28px;fill:#fff;font-family:SourceSansPro-Semibold, Source Sans Pro;}.cls-42,.cls-52{letter-spacing:0.05em;}.cls-43{letter-spacing:0.05em;}.cls-44{letter-spacing:0.04em;}.cls-45{letter-spacing:0.04em;}.cls-46{letter-spacing:0.03em;}.cls-47{letter-spacing:0.03em;}.cls-48{letter-spacing:0.05em;}.cls-49{letter-spacing:0.07em;}.cls-50{letter-spacing:-0.01em;}.cls-51{letter-spacing:0.04em;}.cls-53{letter-spacing:0.04em;}.cls-54{letter-spacing:0.07em;}.cls-55{letter-spacing:0em;}.cls-56{letter-spacing:0.06em;}.cls-57{letter-spacing:0.05em;}.cls-58{letter-spacing:0.03em;}.cls-59{letter-spacing:0.08em;}.cls-60{letter-spacing:0.03em;}.cls-61{letter-spacing:0.05em;}.cls-62{letter-spacing:0.06em;}.cls-63{letter-spacing:0.04em;}.cls-64{letter-spacing:0.02em;}.cls-65{letter-spacing:0.01em;}.cls-66{letter-spacing:0.08em;}.cls-67{letter-spacing:0.06em;}.cls-69{fill:#2e4054;}.cls-70,.cls-93{fill:#1f9950;}.cls-71{letter-spacing:0em;}.cls-73,.cls-74,.cls-75{fill:#e74c3c;}.cls-73,.cls-74,.cls-75,.cls-88{font-size:100px;}.cls-73{letter-spacing:0em;}.cls-74{letter-spacing:0.04em;}.cls-76{letter-spacing:0.02em;}.cls-78{letter-spacing:0.03em;}.cls-79{letter-spacing:0.02em;}.cls-80{letter-spacing:0.02em;}.cls-81{letter-spacing:0.03em;}.cls-82{letter-spacing:0.01em;}.cls-83{letter-spacing:0.01em;}.cls-84{letter-spacing:0.06em;}.cls-85{letter-spacing:0.02em;}.cls-86{letter-spacing:0.01em;}.cls-87{letter-spacing:0.01em;}.cls-88{font-family:SourceSansPro-Regular, Source Sans Pro;letter-spacing:0.05em;}.cls-89{letter-spacing:0.04em;}.cls-90{letter-spacing:0.04em;}.cls-91{letter-spacing:0.04em;}.cls-92{letter-spacing:0.05em;}.cls-93{letter-spacing:0.05em;}.cls-94{letter-spacing:0.03em;}.cls-95{letter-spacing:0.05em;}.cls-96{letter-spacing:0.03em;}.cls-97{fill:none;}</style></defs><title>Asset 4</title><g id="Layer_2" data-name="Layer 2"><g id="Layer_1-2" data-name="Layer 1"><text class="cls-1" transform="translate(418.66 58.1)">P<tspan class="cls-2" x="38.03" y="0">r</tspan><tspan class="cls-3" x="62.07" y="0">i</tspan><tspan class="cls-4" x="78.87" y="0">e</tspan><tspan class="cls-5" x="113.46" y="0">s</tspan><tspan class="cls-6" x="141.62" y="0">k</tspan><tspan class="cls-7" x="173.81" y="0">u</tspan><tspan class="cls-8" x="211.29" y="0">m</tspan><tspan class="cls-9" x="267.15" y="0">u </tspan><tspan class="cls-10" x="323.64" y="0">s</tspan><tspan class="cls-9" x="352.42" y="0">a </tspan><tspan class="cls-11" x="409.53" y="0">z</tspan><tspan class="cls-12" x="438.34" y="0">ú</tspan><tspan class="cls-13" x="476.19" y="0">č</tspan><tspan class="cls-14" x="507.05" y="0">a</tspan><tspan class="cls-5" x="545.03" y="0">s</tspan><tspan class="cls-15" x="573.19" y="0">n</tspan><tspan class="cls-16" x="610.12" y="0">i</tspan><tspan class="cls-17" x="626.68" y="0">l</tspan><tspan class="cls-9" x="644.05" y="0">o </tspan><tspan class="cls-18" x="699.56" y="0">c</tspan><tspan class="cls-19" x="730.09" y="0">e</tspan><tspan class="cls-20" x="764.73" y="0">l</tspan><tspan class="cls-21" x="781.7" y="0">k</tspan><tspan class="cls-22" x="814.01" y="0">o</tspan><tspan class="cls-23" x="850.84" y="0">v</tspan><tspan class="cls-9" x="881.4" y="0">o </tspan><tspan class="cls-24"><tspan class="cls-25" x="-31.26" y="88">5</tspan><tspan class="cls-26" x="13.16" y="88">8 </tspan><tspan class="cls-27" x="80.22" y="88">o</tspan><tspan class="cls-28" x="127.07" y="88">s</tspan><tspan class="cls-25" x="164.79" y="88">ô</tspan><tspan class="cls-26" x="211.76" y="88">b</tspan><tspan class="cls-29" x="262.34" y="88"> </tspan><tspan class="cls-30" x="279.07" y="88">z</tspan><tspan class="cls-29" x="306.99" y="88">o </tspan><tspan class="cls-31" x="362.5" y="88">S</tspan><tspan class="cls-32" x="398.81" y="88">l</tspan><tspan class="cls-33" x="416.17" y="88">o</tspan><tspan class="cls-34" x="453.01" y="88">v</tspan><tspan class="cls-35" x="483.74" y="88">e</tspan><tspan class="cls-36" x="518.46" y="88">n</tspan><tspan class="cls-37" x="555.56" y="88">s</tspan><tspan class="cls-38" x="583.72" y="88">k</tspan><tspan class="cls-29" x="616.03" y="88">a a z </tspan><tspan class="cls-39" x="777.86" y="88">Č</tspan><tspan class="cls-40" x="815.99" y="88">e</tspan><tspan class="cls-41" x="850.58" y="88">s</tspan><tspan class="cls-38" x="878.74" y="88">k</tspan><tspan class="cls-29" x="911.05" y="88">a</tspan></tspan></text><text class="cls-42" transform="translate(129.92 684.59)">&lt; <tspan class="cls-43" x="22.9" y="0">1</tspan><tspan x="38.71" y="0">5 </tspan><tspan class="cls-44" x="61.61" y="0">r</tspan><tspan class="cls-45" x="73.24" y="0">o</tspan><tspan class="cls-46" x="89.8" y="0">k</tspan><tspan class="cls-47" x="105.16" y="0">o</tspan><tspan x="121.36" y="0">v</tspan></text><text class="cls-48" transform="translate(339.94 684.59)">1<tspan class="cls-49" x="15.81" y="0">5</tspan><tspan class="cls-50" x="32.11" y="0">–</tspan><tspan class="cls-51" x="45.4" y="0">1</tspan><tspan class="cls-52" x="60.83" y="0">8</tspan></text><text class="cls-53" transform="translate(518.68 684.59)">1<tspan class="cls-54" x="15.48" y="0">9</tspan><tspan class="cls-55" x="31.85" y="0">–</tspan><tspan class="cls-56" x="45.38" y="0">2</tspan><tspan class="cls-57" x="61.35" y="0">3</tspan></text><text class="cls-58" transform="translate(698.53 684.59)">2<tspan class="cls-59" x="15.28" y="0">4</tspan><tspan class="cls-60" x="31.77" y="0">–</tspan><tspan class="cls-61" x="45.98" y="0">3</tspan><tspan class="cls-52" x="61.64" y="0">0</tspan></text><text class="cls-42" transform="translate(1027.84 684.59)">&gt; <tspan class="cls-62" x="22.9" y="0">4</tspan><tspan x="38.88" y="0">0 </tspan><tspan class="cls-63" x="61.79" y="0">r</tspan><tspan class="cls-45" x="73.41" y="0">o</tspan><tspan class="cls-46" x="89.98" y="0">k</tspan><tspan class="cls-47" x="105.33" y="0">o</tspan><tspan x="121.53" y="0">v</tspan></text><text class="cls-64" transform="translate(878.7 684.59)">3<tspan class="cls-65" x="15.02" y="0">1</tspan><tspan class="cls-66" x="29.59" y="0">–</tspan><tspan class="cls-67" x="45.32" y="0">4</tspan><tspan class="cls-52" x="61.3" y="0">0</tspan></text><rect class="cls-68" x="497.23" y="450.03" width="30" height="30"/><rect class="cls-68" x="497.23" y="495.03" width="30" height="30"/><rect class="cls-68" x="497.23" y="540.03" width="30" height="30"/><rect class="cls-68" x="497.23" y="585.03" width="30" height="30"/><rect class="cls-68" x="542.23" y="450.03" width="30" height="30"/><rect class="cls-68" x="542.23" y="495.03" width="30" height="30"/><rect class="cls-68" x="542.23" y="540.03" width="30" height="30"/><rect class="cls-68" x="542.23" y="585.03" width="30" height="30"/><rect class="cls-68" x="587.23" y="450.03" width="30" height="30"/><rect class="cls-68" x="587.23" y="495.03" width="30" height="30"/><rect class="cls-68" x="587.23" y="540.03" width="30" height="30"/><rect class="cls-68" x="587.23" y="585.03" width="30" height="30"/><rect class="cls-69" x="497.23" y="269.03" width="30" height="30"/><rect class="cls-70" x="497.23" y="314.03" width="30" height="30"/><rect class="cls-68" x="497.23" y="359.03" width="30" height="30"/><rect class="cls-68" x="497.23" y="404.03" width="30" height="30"/><rect class="cls-69" x="542.23" y="269.03" width="30" height="30"/><rect class="cls-70" x="542.23" y="314.03" width="30" height="30"/><rect class="cls-68" x="542.23" y="359.03" width="30" height="30"/><rect class="cls-68" x="542.23" y="404.03" width="30" height="30"/><rect class="cls-70" x="587.23" y="269.03" width="30" height="30"/><rect class="cls-68" x="587.23" y="314.03" width="30" height="30"/><rect class="cls-68" x="587.23" y="359.03" width="30" height="30"/><rect class="cls-68" x="587.23" y="404.03" width="30" height="30"/><rect class="cls-69" x="138.23" y="450.03" width="30" height="30"/><rect class="cls-69" x="138.23" y="495.03" width="30" height="30"/><rect class="cls-69" x="138.23" y="540.03" width="30" height="30"/><rect class="cls-69" x="138.23" y="585.03" width="30" height="30"/><rect class="cls-69" x="183.23" y="450.03" width="30" height="30"/><rect class="cls-69" x="183.23" y="495.03" width="30" height="30"/><rect class="cls-69" x="183.23" y="540.03" width="30" height="30"/><rect class="cls-69" x="183.23" y="585.03" width="30" height="30"/><rect class="cls-69" x="228.23" y="450.03" width="30" height="30"/><rect class="cls-69" x="228.23" y="495.03" width="30" height="30"/><rect class="cls-69" x="228.23" y="540.03" width="30" height="30"/><rect class="cls-69" x="228.23" y="585.03" width="30" height="30"/><rect class="cls-69" x="138.23" y="269.03" width="30" height="30"/><rect class="cls-69" x="138.23" y="314.03" width="30" height="30"/><rect class="cls-69" x="138.23" y="359.03" width="30" height="30"/><rect class="cls-69" x="138.23" y="404.03" width="30" height="30"/><rect class="cls-69" x="183.23" y="269.03" width="30" height="30"/><rect class="cls-69" x="183.23" y="314.03" width="30" height="30"/><rect class="cls-69" x="183.23" y="359.03" width="30" height="30"/><rect class="cls-69" x="183.23" y="404.03" width="30" height="30"/><rect class="cls-69" x="228.23" y="269.03" width="30" height="30"/><rect class="cls-69" x="228.23" y="314.03" width="30" height="30"/><rect class="cls-69" x="228.23" y="359.03" width="30" height="30"/><rect class="cls-69" x="228.23" y="404.03" width="30" height="30"/><rect class="cls-68" x="318.23" y="450.03" width="30" height="30"/><rect class="cls-68" x="318.23" y="495.03" width="30" height="30"/><rect class="cls-68" x="318.23" y="540.03" width="30" height="30"/><rect class="cls-68" x="318.23" y="585.03" width="30" height="30"/><rect class="cls-68" x="363.23" y="450.03" width="30" height="30"/><rect class="cls-68" x="363.23" y="495.03" width="30" height="30"/><rect class="cls-68" x="363.23" y="540.03" width="30" height="30"/><rect class="cls-68" x="363.23" y="585.03" width="30" height="30"/><rect class="cls-68" x="408.23" y="450.03" width="30" height="30"/><rect class="cls-68" x="408.23" y="495.03" width="30" height="30"/><rect class="cls-68" x="408.23" y="540.03" width="30" height="30"/><rect class="cls-68" x="408.23" y="585.03" width="30" height="30"/><rect class="cls-69" x="318.23" y="269.03" width="30" height="30"/><rect class="cls-69" x="318.23" y="314.03" width="30" height="30"/><rect class="cls-69" x="318.23" y="359.03" width="30" height="30"/><rect class="cls-69" x="318.23" y="404.03" width="30" height="30"/><rect class="cls-69" x="363.23" y="269.03" width="30" height="30"/><rect class="cls-69" x="363.23" y="314.03" width="30" height="30"/><rect class="cls-69" x="363.23" y="359.03" width="30" height="30"/><rect class="cls-69" x="363.23" y="404.03" width="30" height="30"/><rect class="cls-69" x="408.23" y="269.03" width="30" height="30"/><rect class="cls-69" x="408.23" y="314.03" width="30" height="30"/><rect class="cls-69" x="408.23" y="359.03" width="30" height="30"/><rect class="cls-68" x="408.23" y="404.03" width="30" height="30"/><rect class="cls-69" x="1036.23" y="450.03" width="30" height="30"/><rect class="cls-69" x="1036.23" y="495.03" width="30" height="30"/><rect class="cls-69" x="1036.23" y="540.03" width="30" height="30"/><rect class="cls-68" x="1036.23" y="585.03" width="30" height="30"/><rect class="cls-69" x="1081.23" y="450.03" width="30" height="30"/><rect class="cls-69" x="1081.23" y="495.03" width="30" height="30"/><rect class="cls-69" x="1081.23" y="540.03" width="30" height="30"/><rect class="cls-69" x="1081.23" y="585.03" width="30" height="30"/><rect class="cls-69" x="1126.23" y="450.03" width="30" height="30"/><rect class="cls-69" x="1126.23" y="495.03" width="30" height="30"/><rect class="cls-69" x="1126.23" y="540.03" width="30" height="30"/><rect class="cls-69" x="1126.23" y="585.03" width="30" height="30"/><rect class="cls-69" x="1036.23" y="269.03" width="30" height="30"/><rect class="cls-69" x="1036.23" y="314.03" width="30" height="30"/><rect class="cls-69" x="1036.23" y="359.03" width="30" height="30"/><rect class="cls-69" x="1036.23" y="404.03" width="30" height="30"/><rect class="cls-69" x="1081.23" y="269.03" width="30" height="30"/><rect class="cls-69" x="1081.23" y="314.03" width="30" height="30"/><rect class="cls-69" x="1081.23" y="359.03" width="30" height="30"/><rect class="cls-69" x="1081.23" y="404.03" width="30" height="30"/><rect class="cls-69" x="1126.23" y="269.03" width="30" height="30"/><rect class="cls-69" x="1126.23" y="314.03" width="30" height="30"/><rect class="cls-69" x="1126.23" y="359.03" width="30" height="30"/><rect class="cls-69" x="1126.23" y="404.03" width="30" height="30"/><rect class="cls-69" x="857.23" y="450.03" width="30" height="30"/><rect class="cls-68" x="857.23" y="495.03" width="30" height="30"/><rect class="cls-68" x="857.23" y="540.03" width="30" height="30"/><rect class="cls-68" x="857.23" y="585.03" width="30" height="30"/><rect class="cls-69" x="902.23" y="450.03" width="30" height="30"/><rect class="cls-68" x="902.23" y="495.03" width="30" height="30"/><rect class="cls-68" x="902.23" y="540.03" width="30" height="30"/><rect class="cls-68" x="902.23" y="585.03" width="30" height="30"/><rect class="cls-69" x="947.23" y="450.03" width="30" height="30"/><rect class="cls-69" x="947.23" y="495.03" width="30" height="30"/><rect class="cls-68" x="947.23" y="540.03" width="30" height="30"/><rect class="cls-68" x="947.23" y="585.03" width="30" height="30"/><rect class="cls-69" x="857.23" y="269.03" width="30" height="30"/><rect class="cls-69" x="857.23" y="314.03" width="30" height="30"/><rect class="cls-69" x="857.23" y="359.03" width="30" height="30"/><rect class="cls-69" x="857.23" y="404.03" width="30" height="30"/><rect class="cls-69" x="902.23" y="269.03" width="30" height="30"/><rect class="cls-69" x="902.23" y="314.03" width="30" height="30"/><rect class="cls-69" x="902.23" y="359.03" width="30" height="30"/><rect class="cls-69" x="902.23" y="404.03" width="30" height="30"/><rect class="cls-69" x="947.23" y="269.03" width="30" height="30"/><rect class="cls-69" x="947.23" y="314.03" width="30" height="30"/><rect class="cls-69" x="947.23" y="359.03" width="30" height="30"/><rect class="cls-69" x="947.23" y="404.03" width="30" height="30"/><rect class="cls-68" x="677.23" y="450.03" width="30" height="30"/><rect class="cls-68" x="677.23" y="495.03" width="30" height="30"/><rect class="cls-68" x="677.23" y="540.03" width="30" height="30"/><rect class="cls-68" x="677.23" y="585.03" width="30" height="30"/><rect class="cls-68" x="722.23" y="450.03" width="30" height="30"/><rect class="cls-68" x="722.23" y="495.03" width="30" height="30"/><rect class="cls-68" x="722.23" y="540.03" width="30" height="30"/><rect class="cls-68" x="722.23" y="585.03" width="30" height="30"/><rect class="cls-68" x="767.23" y="450.03" width="30" height="30"/><rect class="cls-68" x="767.23" y="495.03" width="30" height="30"/><rect class="cls-68" x="767.23" y="540.03" width="30" height="30"/><rect class="cls-68" x="767.23" y="585.03" width="30" height="30"/><rect class="cls-70" x="677.23" y="269.03" width="30" height="30"/><rect class="cls-68" x="677.23" y="314.03" width="30" height="30"/><rect class="cls-68" x="677.23" y="359.03" width="30" height="30"/><rect class="cls-68" x="677.23" y="404.03" width="30" height="30"/><rect class="cls-70" x="722.23" y="269.03" width="30" height="30"/><rect class="cls-68" x="722.23" y="314.03" width="30" height="30"/><rect class="cls-68" x="722.23" y="359.03" width="30" height="30"/><rect class="cls-68" x="722.23" y="404.03" width="30" height="30"/><rect class="cls-70" x="767.23" y="269.03" width="30" height="30"/><rect class="cls-69" x="497.23" y="224.03" width="30" height="30"/><rect class="cls-69" x="542.23" y="224.03" width="30" height="30"/><rect class="cls-69" x="587.23" y="224.03" width="30" height="30"/><rect class="cls-69" x="138.23" y="224.03" width="30" height="30"/><rect class="cls-69" x="183.23" y="224.03" width="30" height="30"/><rect class="cls-69" x="228.23" y="224.03" width="30" height="30"/><rect class="cls-69" x="318.23" y="224.03" width="30" height="30"/><rect class="cls-69" x="363.23" y="224.03" width="30" height="30"/><rect class="cls-69" x="408.23" y="224.03" width="30" height="30"/><rect class="cls-69" x="1036.23" y="224.03" width="30" height="30"/><rect class="cls-69" x="1081.23" y="224.03" width="30" height="30"/><rect class="cls-69" x="1126.23" y="224.03" width="30" height="30"/><rect class="cls-69" x="857.23" y="224.03" width="30" height="30"/><rect class="cls-69" x="902.23" y="224.03" width="30" height="30"/><rect class="cls-69" x="947.23" y="224.03" width="30" height="30"/><rect class="cls-69" x="677.23" y="224.03" width="30" height="30"/><rect class="cls-69" x="722.23" y="224.03" width="30" height="30"/><rect class="cls-69" x="767.23" y="224.03" width="30" height="30"/><rect class="cls-68" x="767.23" y="314.03" width="30" height="30"/><rect class="cls-68" x="767.23" y="359.03" width="30" height="30"/><rect class="cls-68" x="767.23" y="404.03" width="30" height="30"/><text class="cls-71" transform="translate(1222.71 439.37)">L<tspan class="cls-72" x="31.09" y="0">e</tspan><tspan class="cls-9" x="65.81" y="0">n </tspan><tspan class="cls-73" x="121.74" y="0">1</tspan><tspan class="cls-74" x="170.89" y="0">0</tspan><tspan class="cls-75" x="224.21" y="0">% </tspan><tspan class="cls-76"><tspan x="0" y="88">r</tspan><tspan class="cls-4" x="23.27" y="88">e</tspan><tspan class="cls-77" x="57.87" y="88">s</tspan><tspan class="cls-78" x="86.03" y="88">p</tspan><tspan class="cls-4" x="124.83" y="88">o</tspan><tspan class="cls-79" x="161.74" y="88">n</tspan><tspan class="cls-80" x="198.92" y="88">d</tspan><tspan class="cls-81" x="237.39" y="88">e</tspan><tspan class="cls-82" x="272.11" y="88">n</tspan><tspan class="cls-83" x="308.78" y="88">t</tspan><tspan class="cls-22" x="330.3" y="88">o</tspan><tspan class="cls-9" x="367.13" y="88">v </tspan></tspan><tspan class="cls-84"><tspan x="0" y="176">t</tspan><tspan class="cls-7" x="25.16" y="176">v</tspan><tspan class="cls-4" x="55.72" y="176">o</tspan><tspan class="cls-2" x="92.62" y="176">r</tspan><tspan class="cls-85" x="116.67" y="176">i</tspan><tspan class="cls-20" x="133.23" y="176">l</tspan><tspan class="cls-9" x="150.2" y="176">i </tspan><tspan class="cls-86" x="185.82" y="176">ž</tspan><tspan class="cls-72" x="214.17" y="176">e</tspan><tspan class="cls-87" x="248.89" y="176">n</tspan><tspan class="cls-9" x="285.41" y="176">y</tspan></tspan></text><text class="cls-88" transform="translate(1219.42 260.55)">■<tspan class="cls-89" x="36.06" y="-18">M</tspan><tspan class="cls-90" x="58.02" y="-18">u</tspan><tspan class="cls-91" x="74.75" y="-18">ž</tspan><tspan class="cls-92" x="88.37" y="-18" xml:space="preserve">i    </tspan><tspan class="cls-93" x="125.66" y="0">■</tspan><tspan class="cls-94" x="161.47" y="-18">Ž</tspan><tspan class="cls-95" x="177.47" y="-18">e</tspan><tspan class="cls-96" x="192.97" y="-18">n</tspan><tspan class="cls-92" x="209.39" y="-18">y</tspan></text><rect class="cls-97" y="135.03" width="1754" height="360"/></g></g></svg>